<?xml version="1.0" encoding="UTF-8"?><svg id="logo" xmlns="http://www.w3.org/2000/svg" viewBox="0 0 1000 400"><defs><style>.cls-1{fill:#1a1c12;}</style></defs><path class="cls-1" d="M71.31,133.18h41.81v143h-41.81v-143ZM113.12,156.28c0-14.85,11.83-26.67,26.67-26.67s26.68,11.83,26.68,26.67-11.83,26.68-26.68,26.68-26.67-11.83-26.67-26.68Z"/><path class="cls-1" d="M173.8,204.68c0-49.5,37.96-75.35,76.73-75.35s76.73,25.85,76.73,75.35-37.96,75.35-76.73,75.35-76.73-25.85-76.73-75.35ZM283.8,204.68c0-23.1-13.2-36.3-33.28-36.3s-33.28,13.2-33.28,36.3,13.2,36.3,33.28,36.3,33.28-13.2,33.28-36.3Z"/><path class="cls-1" d="M350.63,221.18v-88h41.8v79.75c0,17.88,9.36,28.05,24.2,28.05,16.78,0,28.32-10.17,28.32-28.05v-79.75h41.81v143h-41.81v-17.05c-10.45,13.75-26.12,20.9-43.17,20.9-31.35,0-51.15-21.45-51.15-58.85Z"/><path class="cls-1" d="M530.21,229.98v-59.4h-21.45v-37.4h21.45v-35.75h41.8v35.75h30.25v37.4h-30.25v59.4c0,5.5,2.2,8.8,7.7,8.8h19.8v37.4h-19.8c-27.5,0-49.5-18.7-49.5-46.2Z"/><path class="cls-1" d="M629.49,133.18h41.81v143h-41.81v-143Z"/><path class="cls-1" d="M696.04,204.68c0-49.5,32.45-75.35,65.73-75.35,18.97,0,33.82,6.32,44.27,18.43v-14.57h41.81v195.25h-41.81v-66.82c-10.45,12.1-25.3,18.42-44.27,18.42-33.28,0-65.73-25.85-65.73-75.35ZM806.04,204.68c0-23.1-13.2-36.3-33.27-36.3s-33.28,13.2-33.28,36.3,13.2,36.3,33.28,36.3,33.27-13.2,33.27-36.3Z"/><path class="cls-1" d="M623.72,98.25c0-14.85,11.83-26.67,26.67-26.67s26.68,11.83,26.68,26.67-11.83,26.68-26.68,26.68-26.67-11.83-26.67-26.68Z"/><path class="cls-1" d="M875.34,253.35c0-14.85,11.83-26.67,26.67-26.67s26.68,11.83,26.68,26.67-11.83,26.68-26.68,26.68-26.67-11.83-26.67-26.68Z"/></svg>