<?xml version="1.0" encoding="UTF-8"?><svg xmlns="http://www.w3.org/2000/svg" viewBox="0 0 1000 400"><defs><style>.cls-1{fill:#1a1c12;}</style></defs><g id="logo"><path class="cls-1" d="M875.34,242.35c0-14.85,11.83-26.67,26.67-26.67s26.68,11.83,26.68,26.67-11.83,26.68-26.68,26.68-26.67-11.83-26.67-26.68Z"/></g><g id="Ebene_1"><path class="cls-1" d="M71.31,121.08h41.81v143h-41.81V121.08ZM113.12,144.18c0-14.85,11.83-26.67,26.67-26.67s26.68,11.83,26.68,26.67-11.83,26.68-26.68,26.68-26.67-11.83-26.67-26.68Z"/><path class="cls-1" d="M173.8,192.58c0-49.5,37.96-75.35,76.73-75.35s76.73,25.85,76.73,75.35-37.96,75.35-76.73,75.35-76.73-25.85-76.73-75.35ZM283.8,192.58c0-23.1-13.2-36.3-33.28-36.3s-33.28,13.2-33.28,36.3,13.2,36.3,33.28,36.3,33.28-13.2,33.28-36.3Z"/><path class="cls-1" d="M350.63,209.08v-88h41.8v79.75c0,17.88,9.36,28.05,24.2,28.05,16.78,0,28.32-10.17,28.32-28.05v-79.75h41.81v143h-41.81v-17.05c-10.45,13.75-26.12,20.9-43.17,20.9-31.35,0-51.15-21.45-51.15-58.85Z"/><path class="cls-1" d="M530.21,217.88v-59.4h-21.45v-37.4h21.45v-35.75h41.8v35.75h30.25v37.4h-30.25v59.4c0,5.5,2.2,8.8,7.7,8.8h19.8v37.4h-19.8c-27.5,0-49.5-18.7-49.5-46.2Z"/><path class="cls-1" d="M629.49,121.08h41.81v143h-41.81V121.08Z"/><path class="cls-1" d="M696.04,192.58c0-49.5,32.45-75.35,65.73-75.35,18.97,0,33.82,6.32,44.27,18.43v-14.57h41.81v195.25h-41.81v-66.82c-10.45,12.1-25.3,18.42-44.27,18.42-33.28,0-65.73-25.85-65.73-75.35ZM806.04,192.58c0-23.1-13.2-36.3-33.27-36.3s-33.28,13.2-33.28,36.3,13.2,36.3,33.28,36.3,33.27-13.2,33.27-36.3Z"/><path class="cls-1" d="M623.72,86.15c0-14.85,11.83-26.67,26.67-26.67s26.68,11.83,26.68,26.67-11.83,26.68-26.68,26.68-26.67-11.83-26.67-26.68Z"/><path class="cls-1" d="M316.38,339.01c-1.45,1-3.15,1.51-5.11,1.51-1.44,0-2.72-.28-3.84-.83-1.13-.56-2.01-1.36-2.64-2.4-.64-1.04-.96-2.29-.96-3.72,0-2.22.75-3.93,2.26-5.11,1.51-1.18,3.51-1.77,6-1.77h3.46c1.33,0,2.32-.24,2.97-.73s.98-1.22.98-2.2c0-1.3-.52-2.33-1.57-3.07-1.04-.75-2.39-1.12-4.05-1.12-1.82,0-3.3.45-4.43,1.36-1.14.91-1.78,2.22-1.91,3.93h-2.85c.16-2.44,1.04-4.35,2.64-5.72,1.6-1.37,3.8-2.05,6.59-2.05,1.84,0,3.4.31,4.66.92s2.2,1.46,2.83,2.56c.62,1.1.94,2.37.94,3.8v11.55c0,.54.12.94.35,1.18s.59.37,1.08.37h1.1v2.52h-1.99c-1.03,0-1.83-.28-2.4-.83-.57-.56-.85-1.32-.85-2.3v-2.2h-.08c-.65,1.9-1.7,3.35-3.15,4.35ZM315.61,337.12c1.15-.61,2.09-1.54,2.81-2.79.72-1.25,1.08-2.81,1.08-4.68v-2.97h-.08c-.35.81-.93,1.42-1.73,1.83-.8.41-1.88.61-3.23.61l-2.32.04c-1.82-.03-3.16.38-4.03,1.22-.87.84-1.3,1.9-1.3,3.17s.42,2.37,1.26,3.21c.84.84,2.09,1.26,3.74,1.26,1.38,0,2.65-.3,3.8-.92Z"/><rect class="cls-1" x="328.77" y="310.17" width="2.97" height="3.13"/><rect class="cls-1" x="328.81" y="317.62" width="2.85" height="22.37"/><path class="cls-1" d="M358.81,339.01c-1.45,1-3.15,1.51-5.11,1.51-1.44,0-2.72-.28-3.84-.83-1.13-.56-2.01-1.36-2.64-2.4-.64-1.04-.96-2.29-.96-3.72,0-2.22.75-3.93,2.26-5.11,1.51-1.18,3.51-1.77,6-1.77h3.46c1.33,0,2.32-.24,2.97-.73s.98-1.22.98-2.2c0-1.3-.52-2.33-1.57-3.07-1.04-.75-2.39-1.12-4.05-1.12-1.82,0-3.3.45-4.43,1.36-1.14.91-1.78,2.22-1.91,3.93h-2.85c.16-2.44,1.04-4.35,2.64-5.72,1.6-1.37,3.8-2.05,6.59-2.05,1.84,0,3.4.31,4.66.92s2.2,1.46,2.83,2.56c.62,1.1.94,2.37.94,3.8v11.55c0,.54.12.94.35,1.18s.59.37,1.08.37h1.1v2.52h-1.99c-1.03,0-1.83-.28-2.4-.83-.57-.56-.85-1.32-.85-2.3v-2.2h-.08c-.65,1.9-1.7,3.35-3.15,4.35ZM358.04,337.12c1.15-.61,2.09-1.54,2.81-2.79.72-1.25,1.08-2.81,1.08-4.68v-2.97h-.08c-.35.81-.93,1.42-1.73,1.83-.8.41-1.88.61-3.23.61l-2.32.04c-1.82-.03-3.16.38-4.03,1.22-.87.84-1.3,1.9-1.3,3.17s.42,2.37,1.26,3.21c.84.84,2.09,1.26,3.74,1.26,1.38,0,2.65-.3,3.8-.92Z"/><path class="cls-1" d="M374.19,339.44c-1.13-.72-1.99-1.77-2.58-3.17-.6-1.4-.9-3.06-.9-4.98v-13.67h2.85v13.3c0,2.47.5,4.26,1.51,5.37,1,1.11,2.32,1.67,3.95,1.67,1.27,0,2.43-.29,3.46-.86,1.03-.57,1.86-1.46,2.48-2.68.62-1.22.94-2.73.94-4.52v-12.29h2.89v22.37h-2.81v-4.92h-.08c-.65,1.76-1.63,3.11-2.95,4.05-1.32.94-2.87,1.4-4.66,1.4-1.6,0-2.96-.36-4.09-1.08Z"/><path class="cls-1" d="M407.16,337.47v2.52h-5.01c-1.73,0-3.05-.45-3.93-1.34-.87-.89-1.32-2.2-1.32-3.91v-14.6h-4.76v-2.52h4.76v-6.11h2.81v6.11h7.24v2.52h-7.24v14.49c0,.97.23,1.7.69,2.15.47.46,1.18.69,2.17.69h4.6Z"/><path class="cls-1" d="M413.96,339.12c-1.65-.94-2.96-2.29-3.93-4.07-.96-1.78-1.44-3.86-1.44-6.24s.48-4.47,1.44-6.24c.96-1.78,2.27-3.13,3.93-4.07,1.65-.94,3.53-1.4,5.61-1.4s3.88.47,5.53,1.4c1.65.94,2.97,2.29,3.95,4.07.98,1.78,1.46,3.86,1.46,6.24s-.49,4.47-1.46,6.24c-.98,1.78-2.29,3.13-3.95,4.07-1.65.94-3.5,1.4-5.53,1.4s-3.96-.47-5.61-1.4ZM423.62,336.94c1.21-.73,2.16-1.79,2.85-3.17s1.04-3.04,1.04-4.96-.35-3.58-1.04-4.96c-.69-1.38-1.64-2.44-2.85-3.17-1.21-.73-2.56-1.1-4.05-1.1s-2.88.37-4.09,1.1-2.16,1.79-2.87,3.17c-.71,1.38-1.06,3.04-1.06,4.96s.35,3.58,1.06,4.96c.71,1.38,1.66,2.44,2.87,3.17s2.57,1.1,4.09,1.1,2.84-.37,4.05-1.1Z"/><path class="cls-1" d="M435.11,317.62h2.81v4.68h.08c.57-1.52,1.44-2.77,2.62-3.74,1.18-.98,2.65-1.46,4.41-1.46s3.25.51,4.39,1.53c1.14,1.02,1.9,2.41,2.28,4.17h.08c.54-1.71,1.44-3.08,2.68-4.13,1.25-1.04,2.78-1.57,4.6-1.57,1.46,0,2.74.37,3.82,1.1,1.08.73,1.91,1.75,2.48,3.05.57,1.3.85,2.83.85,4.6v14.16h-2.85v-13.79c0-2.2-.46-3.84-1.38-4.92-.92-1.08-2.14-1.63-3.66-1.63-1.17,0-2.22.29-3.15.88-.94.58-1.68,1.45-2.24,2.6-.56,1.15-.83,2.54-.83,4.17v12.69h-2.85v-13.79c0-2.2-.45-3.84-1.36-4.92-.91-1.08-2.14-1.63-3.68-1.63-1.17,0-2.22.29-3.15.88s-1.69,1.46-2.26,2.64c-.57,1.18-.85,2.57-.85,4.17v12.65h-2.85v-22.37Z"/><path class="cls-1" d="M483.34,339.01c-1.45,1-3.15,1.51-5.11,1.51-1.44,0-2.72-.28-3.84-.83-1.13-.56-2.01-1.36-2.64-2.4-.64-1.04-.96-2.29-.96-3.72,0-2.22.75-3.93,2.26-5.11,1.51-1.18,3.51-1.77,6-1.77h3.46c1.33,0,2.32-.24,2.97-.73s.98-1.22.98-2.2c0-1.3-.52-2.33-1.57-3.07-1.04-.75-2.39-1.12-4.05-1.12-1.82,0-3.3.45-4.43,1.36-1.14.91-1.78,2.22-1.91,3.93h-2.85c.16-2.44,1.04-4.35,2.64-5.72,1.6-1.37,3.8-2.05,6.59-2.05,1.84,0,3.4.31,4.66.92s2.2,1.46,2.83,2.56c.62,1.1.94,2.37.94,3.8v11.55c0,.54.12.94.35,1.18s.59.37,1.08.37h1.1v2.52h-1.99c-1.03,0-1.83-.28-2.4-.83-.57-.56-.85-1.32-.85-2.3v-2.2h-.08c-.65,1.9-1.7,3.35-3.15,4.35ZM482.57,337.12c1.15-.61,2.09-1.54,2.81-2.79.72-1.25,1.08-2.81,1.08-4.68v-2.97h-.08c-.35.81-.93,1.42-1.73,1.83-.8.41-1.88.61-3.23.61l-2.32.04c-1.82-.03-3.16.38-4.03,1.22-.87.84-1.3,1.9-1.3,3.17s.42,2.37,1.26,3.21c.84.84,2.09,1.26,3.74,1.26,1.38,0,2.65-.3,3.8-.92Z"/><path class="cls-1" d="M507.24,337.47v2.52h-5.01c-1.73,0-3.05-.45-3.92-1.34-.88-.89-1.33-2.2-1.33-3.91v-14.6h-4.76v-2.52h4.76v-6.11h2.81v6.11h7.24v2.52h-7.24v14.49c0,.97.23,1.7.7,2.15.46.46,1.17.69,2.15.69h4.6Z"/><rect class="cls-1" x="511.07" y="310.17" width="2.97" height="3.13"/><rect class="cls-1" x="511.11" y="317.62" width="2.85" height="22.37"/><path class="cls-1" d="M523.96,339.12c-1.65-.94-2.96-2.29-3.93-4.07-.96-1.78-1.44-3.86-1.44-6.24s.48-4.47,1.44-6.24c.96-1.78,2.27-3.13,3.93-4.07,1.65-.94,3.53-1.4,5.61-1.4s3.88.47,5.53,1.4c1.65.94,2.97,2.29,3.95,4.07.98,1.78,1.46,3.86,1.46,6.24s-.49,4.47-1.46,6.24c-.98,1.78-2.29,3.13-3.95,4.07-1.65.94-3.5,1.4-5.53,1.4s-3.96-.47-5.61-1.4ZM533.62,336.94c1.21-.73,2.16-1.79,2.85-3.17s1.04-3.04,1.04-4.96-.35-3.58-1.04-4.96c-.69-1.38-1.64-2.44-2.85-3.17-1.21-.73-2.56-1.1-4.05-1.1s-2.88.37-4.09,1.1-2.16,1.79-2.87,3.17c-.71,1.38-1.06,3.04-1.06,4.96s.35,3.58,1.06,4.96c.71,1.38,1.66,2.44,2.87,3.17s2.57,1.1,4.09,1.1,2.84-.37,4.05-1.1Z"/><path class="cls-1" d="M545.12,317.62h2.81v4.92h.08c.65-1.71,1.65-3.04,3.01-4.01,1.36-.96,2.94-1.44,4.76-1.44,1.54,0,2.87.36,3.99,1.08,1.11.72,1.97,1.78,2.56,3.17.6,1.4.9,3.06.9,4.98v13.67h-2.85v-13.3c0-2.44-.49-4.22-1.48-5.35s-2.33-1.69-4.01-1.69c-1.22,0-2.35.29-3.4.88-1.04.58-1.89,1.49-2.54,2.7-.65,1.22-.98,2.71-.98,4.48v12.29h-2.85v-22.37Z"/><path class="cls-1" d="M581.97,339.52c-1.36-.66-2.41-1.59-3.15-2.77-.75-1.18-1.15-2.57-1.2-4.17h2.97c.05,1.79.63,3.15,1.73,4.07,1.1.92,2.56,1.38,4.37,1.38,1.14,0,2.13-.19,2.97-.57.84-.38,1.49-.91,1.95-1.59.46-.68.69-1.45.69-2.32,0-1.19-.4-2.12-1.2-2.79s-1.99-1-3.56-1h-2.56c-2.14,0-3.83-.53-5.07-1.59s-1.85-2.49-1.85-4.31c0-1.27.33-2.43,1-3.46.66-1.03,1.62-1.84,2.87-2.44,1.25-.6,2.73-.9,4.43-.9s3.28.33,4.56.98c1.27.65,2.25,1.55,2.93,2.7.68,1.15,1.04,2.52,1.1,4.09h-2.97c-.05-1.68-.56-2.98-1.53-3.9s-2.33-1.38-4.09-1.38c-1.63,0-2.92.39-3.89,1.16-.96.77-1.44,1.78-1.44,3.03,0,1.11.37,1.95,1.12,2.5.75.56,1.77.83,3.07.83h2.73c2.3,0,4.11.59,5.41,1.77,1.3,1.18,1.95,2.72,1.95,4.62,0,1.36-.36,2.56-1.08,3.62s-1.72,1.89-3.01,2.5-2.8.92-4.54.92-3.36-.33-4.72-1Z"/><path class="cls-1" d="M612.49,337.47v2.52h-5.01c-1.73,0-3.05-.45-3.92-1.34-.88-.89-1.33-2.2-1.33-3.91v-14.6h-4.76v-2.52h4.76v-6.11h2.81v6.11h7.24v2.52h-7.24v14.49c0,.97.23,1.7.69,2.15.47.46,1.18.69,2.17.69h4.6Z"/><path class="cls-1" d="M619.3,339.44c-1.13-.72-1.99-1.77-2.58-3.17-.6-1.4-.89-3.06-.89-4.98v-13.67h2.85v13.3c0,2.47.5,4.26,1.51,5.37,1,1.11,2.32,1.67,3.95,1.67,1.27,0,2.43-.29,3.46-.86s1.86-1.46,2.48-2.68c.62-1.22.94-2.73.94-4.52v-12.29h2.89v22.37h-2.81v-4.92h-.08c-.65,1.76-1.63,3.11-2.95,4.05-1.31.94-2.87,1.4-4.66,1.4-1.6,0-2.96-.36-4.09-1.08Z"/><path class="cls-1" d="M643.75,339.14c-1.59-.92-2.85-2.26-3.8-4.03-.95-1.76-1.42-3.86-1.42-6.31s.47-4.54,1.42-6.31c.95-1.76,2.22-3.11,3.8-4.03,1.59-.92,3.29-1.38,5.11-1.38,2.06,0,3.87.56,5.41,1.67,1.55,1.11,2.64,2.62,3.3,4.52h.08c-.05-.68-.08-1.52-.08-2.52v-12.53h2.85v31.77h-2.81v-3.13c.03-1,.04-1.84.04-2.52h-.08c-.65,1.9-1.75,3.4-3.3,4.52-1.55,1.11-3.35,1.67-5.41,1.67-1.82,0-3.52-.46-5.11-1.38ZM653.68,336.9c1.23-.76,2.2-1.84,2.91-3.23s1.06-3.02,1.06-4.86-.35-3.46-1.06-4.86c-.71-1.4-1.67-2.47-2.91-3.23-1.23-.76-2.61-1.14-4.13-1.14s-2.93.38-4.15,1.14c-1.22.76-2.18,1.85-2.87,3.26s-1.04,3.02-1.04,4.84.35,3.47,1.04,4.86,1.65,2.47,2.87,3.23c1.22.76,2.6,1.14,4.15,1.14s2.9-.38,4.13-1.14Z"/><rect class="cls-1" x="666.72" y="310.17" width="2.97" height="3.13"/><rect class="cls-1" x="666.76" y="317.62" width="2.85" height="22.37"/><path class="cls-1" d="M679.61,339.12c-1.65-.94-2.96-2.29-3.92-4.07-.96-1.78-1.44-3.86-1.44-6.24s.48-4.47,1.44-6.24c.96-1.78,2.27-3.13,3.92-4.07s3.53-1.4,5.61-1.4,3.88.47,5.53,1.4c1.65.94,2.97,2.29,3.95,4.07.98,1.78,1.46,3.86,1.46,6.24s-.49,4.47-1.46,6.24c-.98,1.78-2.29,3.13-3.95,4.07-1.66.94-3.5,1.4-5.53,1.4s-3.96-.47-5.61-1.4ZM689.27,336.94c1.21-.73,2.16-1.79,2.85-3.17s1.04-3.04,1.04-4.96-.35-3.58-1.04-4.96c-.69-1.38-1.64-2.44-2.85-3.17-1.21-.73-2.56-1.1-4.05-1.1s-2.88.37-4.09,1.1c-1.21.73-2.16,1.79-2.87,3.17-.71,1.38-1.06,3.04-1.06,4.96s.35,3.58,1.06,4.96c.71,1.38,1.66,2.44,2.87,3.17,1.21.73,2.57,1.1,4.09,1.1s2.84-.37,4.05-1.1Z"/></g></svg>