<?xml version="1.0" encoding="UTF-8"?><svg id="Isolationsmodus" xmlns="http://www.w3.org/2000/svg" viewBox="0 0 400 400"><defs><style>.cls-1{fill:#1a1a18;}</style></defs><path class="cls-1" d="M319.41,274.11v53.39c-63.42-4.7-122.71-45.33-148.86-100.43v48.37c0,28.82-23.42,52.24-52.24,52.24h-37.71V124.55c0-28.88,23.36-52.24,52.24-52.24h37.71v33.39c15.04-20.25,39.1-33.39,66.27-33.39,45.64,0,82.59,37.01,82.59,82.59s-36.95,82.65-82.59,82.65c-17.58,0-33.84-5.52-47.23-14.85,19.55,23.42,46.4,40.82,76.37,48.06,17.77,4.51,35.99,5.52,53.45,3.36Z"/></svg>