<?xml version="1.0" encoding="UTF-8"?><svg id="Ebene_1" xmlns="http://www.w3.org/2000/svg" viewBox="0 0 700 700"><defs><style>.cls-1{fill:#1a1c12;}</style></defs><path class="cls-1" d="M354.21,549.7c0-14.85,11.83-26.67,26.67-26.67s26.68,11.83,26.68,26.67-11.83,26.68-26.68,26.68-26.67-11.83-26.67-26.68Z"/><path class="cls-1" d="M242.87,91.17h41.81v143h-41.81V91.17ZM284.68,114.27c0-14.85,11.83-26.67,26.67-26.67s26.68,11.83,26.68,26.67-11.83,26.68-26.68,26.68-26.67-11.83-26.67-26.68Z"/><path class="cls-1" d="M345.36,162.67c0-49.5,37.96-75.35,76.73-75.35s76.73,25.85,76.73,75.35-37.96,75.35-76.73,75.35-76.73-25.85-76.73-75.35ZM455.36,162.67c0-23.1-13.2-36.3-33.28-36.3s-33.28,13.2-33.28,36.3,13.2,36.3,33.28,36.3,33.28-13.2,33.28-36.3Z"/><path class="cls-1" d="M345.79,362.19v-88h41.8v79.75c0,17.88,9.36,28.05,24.2,28.05,16.78,0,28.32-10.17,28.32-28.05v-79.75h41.81v143h-41.81v-17.05c-10.45,13.75-26.12,20.9-43.17,20.9-31.35,0-51.15-21.45-51.15-58.85Z"/><path class="cls-1" d="M525.37,370.99v-59.4h-21.45v-37.4h21.45v-35.75h41.8v35.75h30.25v37.4h-30.25v59.4c0,5.5,2.2,8.8,7.7,8.8h19.8v37.4h-19.8c-27.5,0-49.5-18.7-49.5-46.2Z"/><path class="cls-1" d="M108.35,417.43h41.81v143h-41.81v-143Z"/><path class="cls-1" d="M174.9,488.93c0-49.5,32.45-75.35,65.73-75.35,18.97,0,33.82,6.32,44.27,18.43v-14.57h41.81v195.25h-41.81v-66.82c-10.45,12.1-25.3,18.42-44.27,18.42-33.28,0-65.73-25.85-65.73-75.35ZM284.9,488.93c0-23.1-13.2-36.3-33.27-36.3s-33.28,13.2-33.28,36.3,13.2,36.3,33.28,36.3,33.27-13.2,33.27-36.3Z"/><path class="cls-1" d="M102.58,382.5c0-14.85,11.83-26.67,26.67-26.67s26.68,11.83,26.68,26.67-11.83,26.68-26.68,26.68-26.67-11.83-26.67-26.68Z"/></svg>